<mxfile host="app.diagrams.net" modified="2024-03-17T06:59:56.243Z" agent="Mozilla/5.0 (Macintosh; Intel Mac OS X 10.15; rv:123.0) Gecko/20100101 Firefox/123.0" version="24.0.7" etag="ZEY4vHk6Ls5ppTav9-H6" type="github">
  <diagram name="Page-1" id="533kLwhe5paXipV03wjO">
    <mxGraphModel>
      <root>
        <mxCell id="0" />
        <mxCell id="1" parent="0" />
      </root>
    </mxGraphModel>
  </diagram>
</mxfile>
